<?xml version="1.0" encoding="UTF-8"?>
<svg id="_레이어_1" data-name="레이어_1" xmlns="http://www.w3.org/2000/svg" version="1.1" viewBox="100 0 410.44 247.53" style="width: 100%; height: fit-content;" preserveAspectRatio="xMidYMid meet">
  <defs>
    <style>
      .st0 {
        fill: #01321f;
      }
    </style>
  </defs>
  <path class="st0" d="M242.63,218.65s11.68-5.68,12.82-3.89,1.79,4.22,0,6.82c-1.79,2.6-10.22.49-11.2,0s-1.62-2.92-1.62-2.92Z"/>
  <path class="st0" d="M272.31,246.32s-.06-16.46,19.19-16.46,18.98,13.86,19.97,16.46h-39.16Z"/>
  <path class="st0" d="M333.06,218.63s.71-7.64,3.83-6.08c2.36,1.18,11,2.15,15.07,2.55.98.1,1.5,1.19.96,2.01-.62.93-1.42,2.11-2.21,3.25-1.7,2.43-5.44,4.25-10.69,4.11s-7.47-2.98-6.95-5.84Z"/>
  <g>
    <path class="st0" d="M227.2,173.67h-21.11c-.15,0-.3.07-.42.19-1.64,1.74-.7,5.2,1.42,5.2h21.45c.13,0,.25-.05.36-.14l.83-.69c-.68-1.65-1.22-3.18-1.66-4.56h-.86Z"/>
    <path class="st0" d="M202.32,182.42c-.61,0-1.1.49-1.1,1.1v2.73c0,2.8.3,2.53.88,3.58.62,1.11,1.94,1.62,3.16,1.29l28.03-5.57c-.6-1.06-1.17-2.11-1.68-3.13h-29.3Z"/>
    <path class="st0" d="M234.5,187.57l-43.29,9.47c-2.47,1.86-3.89,3.94-4.79,5.27-1.1,1.63.48,3.72,2.35,3.11,6.11-2.02,18.34-6.05,21.5-7,4.26-1.28,6.42-2.48,7.13-.92s-1.92,2.09-1.92,2.09c0,0-23.84,7.27-27.24,8.41s-4.86,2.23-4.58,6.07c.02.27.06.53.11.77.53,2.55,3.41,3.86,5.83,2.9l39.67-15.7s4.32-2.55,5.73-.96c1.28,1.45-1.41,2.87-1.41,2.87,0,0-33.68,13.05-42.47,16.18-6.2,2.2-1.7,4.22,1.49,5.23,1.5.47,3.09.51,4.62.14l63.59-15.37c-13.01-5.58-21.19-14.35-26.3-22.56Z"/>
    <path class="st0" d="M263.73,212.42c-5.7.32-5.35,5.36-5.35,5.36.52,8.05,5.53,8.26,9.85,8.26s4.84-3.01,4.84-8.26c0-1.97-.51-3.26-1.45-4.08-1.66-.4-3.26-.85-4.8-1.34-.94-.02-1.97,0-3.08.07Z"/>
    <path class="st0" d="M300.56,217.82c0,1.88-1.33,1.36-1.33,1.36,0,0-1.49-.43-1.67-1.82-.09-.7-.22-1.18-.38-1.54-1.53.07-3.1.1-4.7.11-.56,1.13-.31,2.89-.31,2.89,0,0,.11,2.9-2.31,2.9s-2.23-2.55-2.23-2.55v-3.34c-4.55-.19-8.76-.69-12.66-1.44l-.99,11.06c-.2,2.26-.29,4.4-.1,6.74l.29,1.95c3.09-4.39,8.25-6.84,18.11-6.82,11.07.02,16.34,6.83,16.34,6.83,0,0,1.39-7.3.61-13.14-.52-3.89-.88-5.49-2.28-6.16-1.84.28-3.76.49-5.72.67-.47.63-.67,1.44-.67,2.29Z"/>
    <path class="st0" d="M311.63,221.52c.17,1.31,1.11,2.36,2.39,2.71,1.59.43,3.9.76,6.25.11,4.26-1.18,9.87-4.56,11.29-8.66s.2-3.2-5.76-4.92c-.71-.21-1.4-.33-2.06-.4-3.67,1.5-7.7,2.74-12.13,3.68-.57,1.84-.27,5.31.01,7.49Z"/>
    <path class="st0" d="M401.47,190.19s-40.26-6.78-45.23-7.77c-.94-.19-1.7-.17-2.3-.02-.65,1.27-1.36,2.54-2.12,3.81,2.32.61,19.5,5.18,23.57,6.47,1.74.55,3.87,1.88,2.87,2.87-.99.99-3.19.21-3.19.21,0,0-14.83-3.87-18.94-5.85-3.13-1.51-4.6-1.91-5.93-1.14-.72,1.07-1.47,2.14-2.27,3.19.11.59.53,1.12,1.19,1.3,7,1.89,30.8,8.92,33.24,9.9,2.84,1.14,2.75,1.04,2.18,2.66-.37,1.06-3.83-.11-3.83-.11,0,0-27.67-7.93-32.64-9.21-1.54-.4-2.71-.46-3.65-.38-4.03,4.36-9,8.35-15.13,11.59.43.59,1.75,1,2.76,1.09.63.06,1.24.14,1.85.26,7.93,1.52,60.5,12.19,67.18,10.85,7.24-1.44,9.05-8.78,9.05-19s-8.67-10.75-8.67-10.75Z"/>
    <path class="st0" d="M388.22,185.66c6.39.85,7.83.69,7.82-2.63,0-2.13-2.41-2.14-5.11-2-2.7.14-5-.59-2.87-2.29,1.46-1.17,3.99-.41,6.01-1.44.92-.47.51-2.75.43-3.19-.28-1.42-11.95.44-18.2,1.01-6.24.57-9.1.28-9.1-1.7s2.93-1.03,7.18-1.17,14.79-.22,14.79-2.82c0-1.45-5.62-.73-19.25-1.16-6.02-.19-9.01-.07-10.49.12-1.05,3.62-2.44,7.56-4.31,11.57,5.03,1.24,27.21,4.91,33.09,5.69Z"/>
  </g>
  <path class="st0" d="M336.87,70.95c1.14,26.39-23.27,29.51-23.27,29.51,2.84-5.96,4.26-12.2,6.24-30.37,1.99-18.16-11.07-26.39-17.31-37.18-6.24-10.78,2.27-32.92,2.27-32.92-24.69,24.12-31.78,29.8-32.35,63.28-.57,33.49-13.05,34.91-13.05,34.91,5.11-28.66-10.22-36.89-10.22-36.89,4.54,20.15-4.54,40.58-12.77,58.18-8.23,17.59-7.09,32.07-7.09,32.07,0,33.49,19.87,60.45,65.15,60.45s63.41-37.18,65.11-74.07c1.7-36.89-22.7-66.97-22.7-66.97ZM281.25,169.42s5.25-5.82,10.64-5.82,9.37,2.98,11.07,4.02c1.7,1.04,2.13.66.99,2.37-1.14,1.7-3.26,1.48-3.26,1.48,0,0-3.69-3.85-7.95-3.85s-5.53,1.8-7.24,3.85c-1.7,2.05-2.41,2.77-4.26,1.64-1.84-1.14,0-3.69,0-3.69ZM341.13,180.21c-.57,2.13-22.28-5.25-30.51-5.25s-10.36,9.53-10.36,9.53c9.65,4.7,9.37,12.47,9.37,14.31s.71,2.7-1.28,2.7-1.42-1.26-1.42-1.26c0,0-.71-13.93-15.04-13.93s-15.04,10.93-15.04,13.05,0,2.13-1.56,2.13-1.42-1.26-1.42-1.26c0-12.04,7.52-15.06,7.52-15.06,0,0,.43-5.53-8.37-5.53s-9.79,12.63-9.65,14.9c.14,2.27.71,3.26-1.42,3.26s-2.55-.28-2.56-5.82c0-5.53,2.98-7.95,3.13-10.36.14-2.41-5.25,1.14-9.37,2.86-4.11,1.72-5.53.26-6.24-1.16s2.68-2.84,2.68-2.84c11.62-1.84,15.9-5.53,23.71-5.53s11.49,7.32,11.49,7.32c6.58,1.68,11.21,0,11.21,0,5.82-13.68,18.02-10.87,20.29-9.87,2.27.99,20.57,3.69,23.41,4.4s1.99,1.28,1.42,3.41Z"/>
  <path class="st0" d="M252.8,247.53c-6.8,0-12.13-4.05-12.13-9.22s5.33-9.22,12.13-9.22,12.13,4.05,12.13,9.22-5.33,9.22-12.13,9.22ZM252.8,234.75c-3.7,0-6.46,1.87-6.46,3.55s2.76,3.55,6.46,3.55,6.46-1.87,6.46-3.55-2.76-3.55-6.46-3.55Z"/>
  <path class="st0" d="M331.56,247.53c-6.8,0-12.13-4.05-12.13-9.22s5.33-9.22,12.13-9.22,12.13,4.05,12.13,9.22-5.33,9.22-12.13,9.22ZM331.56,234.75c-3.7,0-6.46,1.87-6.46,3.55s2.76,3.55,6.46,3.55,6.46-1.87,6.46-3.55-2.76-3.55-6.46-3.55Z"/>
</svg>